ffmpeg started on 2025-05-12 at 21:08:03
Report written to "D:\Convert\FFMetrics\reports\psnr_report-6.txt"
Log level: 32
Command line:
ffmpeg -hide_banner -nostdin -i "G:\\\xc0\xed\xe8\xec\xe5\\\xce\xed\xe3\xee\xe8\xed\xe3\xe8\\!_35_\xcb\xe5\xf2\xee_2024\\DreamCast-1\\\xd1\xe0\xec\xfb\xe9 \xf1\xe8\xeb\xfc\xed\xfb\xe9 \xe2\xee\xeb\xf8\xe5\xe1\xed\xe8\xea \xe0\xf0\xec\xe8\xe8 \xef\xee\xe2\xe5\xeb\xe8\xf2\xe5\xeb\xff \xe4\xe5\xec\xee\xed\xee\xe2 \xee\xea\xe0\xe7\xe0\xeb\xf1\xff \xf7\xe5\xeb\xee\xe2\xe5\xea\xee\xec\\DC_Maou_Gun_Saikyou_no_Majutsushi_wa_Ningen_datta_02_Telegram_HEVC.mkv" -i "G:\\\xc0\xed\xe8\xec\xe5\\\xce\xed\xe3\xee\xe8\xed\xe3\xe8\\!_35_\xcb\xe5\xf2\xee_2024\\DreamCast-1\\\xd1\xe0\xec\xfb\xe9 \xf1\xe8\xeb\xfc\xed\xfb\xe9 \xe2\xee\xeb\xf8\xe5\xe1\xed\xe8\xea \xe0\xf0\xec\xe8\xe8 \xef\xee\xe2\xe5\xeb\xe8\xf2\xe5\xeb\xff \xe4\xe5\xec\xee\xed\xee\xe2 \xee\xea\xe0\xe7\xe0\xeb\xf1\xff \xf7\xe5\xeb\xee\xe2\xe5\xea\xee\xec\\DC_Maou_Gun_Saikyou_no_Majutsushi_wa_Ningen_datta_02_Telegram.mp4" -lavfi "[0:v]settb=AVTB,setpts=PTS-STARTPTS,format=pix_fmts=yuv420p10,fps=24000/1001,scale=1920:1080:flags=bicubic[main];[1:v]settb=AVTB,setpts=PTS-STARTPTS,format=pix_fmts=yuv420p,fps=24000/1001,scale=1920:1080:flags=bicubic[ref];[main][ref]psnr=eof_action=endall:stats_file='D\\:/Convert/FFMetrics/logs/psnr_logfile-6.txt'" -f null -
Input #0, matroska,webm, from 'G:\Аниме\Онгоинги\!_35_Лето_2024\DreamCast-1\Самый сильный волшебник армии повелителя демонов оказался человеком\DC_Maou_Gun_Saikyou_no_Majutsushi_wa_Ningen_datta_02_Telegram_HEVC.mkv':
  Metadata:
    COMPATIBLE_BRANDS: isomiso2avc1mp41
    MAJOR_BRAND     : isom
    MINOR_VERSION   : 512
    ENCODER         : Lavf61.7.100
  Duration: 00:23:46.69, start: -0.021000, bitrate: 922 kb/s
  Stream #0:0: Video: hevc (Main 10), yuv420p10le(tv, bt709, progressive), 1920x1080 [SAR 1:1 DAR 16:9], 23.98 fps, 23.98 tbr, 1k tbn (default)
      Metadata:
        HANDLER_NAME    : VideoHandler
        VENDOR_ID       : [0][0][0][0]
        ENCODER         : Lavc61.19.100 libx265
        BPS             : 724871
        DURATION        : 00:23:46.508708333
        NUMBER_OF_FRAMES: 34202
        NUMBER_OF_BYTES : 129254309
        _STATISTICS_WRITING_APP: mkvpropedit v66.0.0 ('Josie') 64-bit
        _STATISTICS_WRITING_DATE_UTC: 2025-05-10 15:04:10
        _STATISTICS_TAGS: BPS DURATION NUMBER_OF_FRAMES NUMBER_OF_BYTES
  Stream #0:1: Audio: aac (LC), 48000 Hz, stereo, fltp (default)
      Metadata:
        HANDLER_NAME    : SoundHandler
        VENDOR_ID       : [0][0][0][0]
        ENCODER         : Lavc61.19.100 aac
        BPS             : 193728
        DURATION        : 00:23:46.688000000
        NUMBER_OF_FRAMES: 66877
        NUMBER_OF_BYTES : 34548785
        _STATISTICS_WRITING_APP: mkvpropedit v66.0.0 ('Josie') 64-bit
        _STATISTICS_WRITING_DATE_UTC: 2025-05-10 15:04:10
        _STATISTICS_TAGS: BPS DURATION NUMBER_OF_FRAMES NUMBER_OF_BYTES
Input #1, mov,mp4,m4a,3gp,3g2,mj2, from 'G:\Аниме\Онгоинги\!_35_Лето_2024\DreamCast-1\Самый сильный волшебник армии повелителя демонов оказался человеком\DC_Maou_Gun_Saikyou_no_Majutsushi_wa_Ningen_datta_02_Telegram.mp4':
  Metadata:
    major_brand     : isom
    minor_version   : 512
    compatible_brands: isomiso2avc1mp41
    encoder         : Lavf61.1.100
  Duration: 00:23:46.63, start: 0.000000, bitrate: 3559 kb/s
  Stream #1:0[0x1](und): Video: h264 (High) (avc1 / 0x31637661), yuv420p(tv, bt709, progressive), 1920x1080 [SAR 1:1 DAR 16:9], 3411 kb/s, 23.98 fps, 23.98 tbr, 24k tbn (default)
      Metadata:
        handler_name    : VideoHandler
        vendor_id       : [0][0][0][0]
        encoder         : Lavc61.3.100 h264_qsv
  Stream #1:1[0x2](und): Audio: aac (HE-AACv2) (mp4a / 0x6134706D), 48000 Hz, stereo, fltp, 144 kb/s (default)
      Metadata:
        handler_name    : SoundHandler
        vendor_id       : [0][0][0][0]
Stream mapping:
  Stream #0:0 (hevc) -> settb:default
  Stream #1:0 (h264) -> settb:default
  psnr:default -> Stream #0:0 (wrapped_avframe)
  Stream #0:1 -> #0:1 (aac (native) -> pcm_s16le (native))
Output #0, null, to 'pipe:':
  Metadata:
    COMPATIBLE_BRANDS: isomiso2avc1mp41
    MAJOR_BRAND     : isom
    MINOR_VERSION   : 512
    encoder         : Lavf61.7.100
  Stream #0:0: Video: wrapped_avframe, yuv420p10le(tv, bt709, progressive), 1920x1080 [SAR 1:1 DAR 16:9], q=2-31, 200 kb/s, 23.98 fps, 23.98 tbn
      Metadata:
        encoder         : Lavc61.19.100 wrapped_avframe
  Stream #0:1: Audio: pcm_s16le, 48000 Hz, stereo, s16, 1536 kb/s (default)
      Metadata:
        HANDLER_NAME    : SoundHandler
        VENDOR_ID       : [0][0][0][0]
        _STATISTICS_TAGS: BPS DURATION NUMBER_OF_FRAMES NUMBER_OF_BYTES
        BPS             : 193728
        DURATION        : 00:23:46.688000000
        NUMBER_OF_FRAMES: 66877
        NUMBER_OF_BYTES : 34548785
        _STATISTICS_WRITING_APP: mkvpropedit v66.0.0 ('Josie') 64-bit
        _STATISTICS_WRITING_DATE_UTC: 2025-05-10 15:04:10
        encoder         : Lavc61.19.100 pcm_s16le
frame=  163 fps=0.0 q=-0.0 size=N/A time=00:00:06.79 bitrate=N/A speed=12.9x    frame=  360 fps=346 q=-0.0 size=N/A time=00:00:15.01 bitrate=N/A speed=14.4x    frame=  591 fps=380 q=-0.0 size=N/A time=00:00:24.64 bitrate=N/A speed=15.9x    frame=  814 fps=393 q=-0.0 size=N/A time=00:00:33.95 bitrate=N/A speed=16.4x    frame= 1046 fps=405 q=-0.0 size=N/A time=00:00:43.62 bitrate=N/A speed=16.9x    frame= 1280 fps=412 q=-0.0 size=N/A time=00:00:53.38 bitrate=N/A speed=17.2x    frame= 1494 fps=414 q=-0.0 size=N/A time=00:01:02.31 bitrate=N/A speed=17.2x    frame= 1712 fps=414 q=-0.0 size=N/A time=00:01:11.40 bitrate=N/A speed=17.3x    frame= 1974 fps=425 q=-0.0 size=N/A time=00:01:22.33 bitrate=N/A speed=17.7x    frame= 2226 fps=431 q=-0.0 size=N/A time=00:01:32.84 bitrate=N/A speed=  18x    frame= 2483 fps=437 q=-0.0 size=N/A time=00:01:43.56 bitrate=N/A speed=18.2x    frame= 2730 fps=441 q=-0.0 size=N/A time=00:01:53.86 bitrate=N/A speed=18.4x    frame= 2921 fps=436 q=-0.0 size=N/A time=00:02:01.83 bitrate=N/A speed=18.2x    frame= 3103 fps=430 q=-0.0 size=N/A time=00:02:09.42 bitrate=N/A speed=17.9x    frame= 3331 fps=430 q=-0.0 size=N/A time=00:02:18.93 bitrate=N/A speed=17.9x    frame= 3570 fps=432 q=-0.0 size=N/A time=00:02:28.89 bitrate=N/A speed=  18x    frame= 3774 fps=430 q=-0.0 size=N/A time=00:02:37.40 bitrate=N/A speed=17.9x    frame= 3976 fps=428 q=-0.0 size=N/A time=00:02:45.83 bitrate=N/A speed=17.8x    frame= 4162 fps=424 q=-0.0 size=N/A time=00:02:53.59 bitrate=N/A speed=17.7x    frame= 4385 fps=424 q=-0.0 size=N/A time=00:03:02.89 bitrate=N/A speed=17.7x    frame= 4597 fps=424 q=-0.0 size=N/A time=00:03:11.77 bitrate=N/A speed=17.7x    frame= 4832 fps=425 q=-0.0 size=N/A time=00:03:21.53 bitrate=N/A speed=17.7x    frame= 5097 fps=429 q=-0.0 size=N/A time=00:03:32.58 bitrate=N/A speed=17.9x    frame= 5347 fps=431 q=-0.0 size=N/A time=00:03:43.01 bitrate=N/A speed=  18x    frame= 5544 fps=429 q=-0.0 size=N/A time=00:03:51.23 bitrate=N/A speed=17.9x    frame= 5755 fps=428 q=-0.0 size=N/A time=00:04:00.03 bitrate=N/A speed=17.9x    frame= 5962 fps=427 q=-0.0 size=N/A time=00:04:08.66 bitrate=N/A speed=17.8x    frame= 6207 fps=429 q=-0.0 size=N/A time=00:04:18.88 bitrate=N/A speed=17.9x    frame= 6455 fps=431 q=-0.0 size=N/A time=00:04:29.22 bitrate=N/A speed=  18x    frame= 6717 fps=433 q=-0.0 size=N/A time=00:04:40.15 bitrate=N/A speed=18.1x    frame= 6954 fps=434 q=-0.0 size=N/A time=00:04:50.03 bitrate=N/A speed=18.1x    frame= 7212 fps=436 q=-0.0 size=N/A time=00:05:00.80 bitrate=N/A speed=18.2x    frame= 7468 fps=438 q=-0.0 size=N/A time=00:05:11.47 bitrate=N/A speed=18.3x    frame= 7724 fps=440 q=-0.0 size=N/A time=00:05:22.15 bitrate=N/A speed=18.3x    frame= 7984 fps=441 q=-0.0 size=N/A time=00:05:32.99 bitrate=N/A speed=18.4x    frame= 8213 fps=441 q=-0.0 size=N/A time=00:05:42.55 bitrate=N/A speed=18.4x    frame= 8447 fps=442 q=-0.0 size=N/A time=00:05:52.31 bitrate=N/A speed=18.4x    frame= 8661 fps=441 q=-0.0 size=N/A time=00:06:01.23 bitrate=N/A speed=18.4x    frame= 8905 fps=442 q=-0.0 size=N/A time=00:06:11.41 bitrate=N/A speed=18.4x    frame= 9152 fps=443 q=-0.0 size=N/A time=00:06:21.71 bitrate=N/A speed=18.5x    frame= 9399 fps=444 q=-0.0 size=N/A time=00:06:32.01 bitrate=N/A speed=18.5x    frame= 9676 fps=446 q=-0.0 size=N/A time=00:06:43.56 bitrate=N/A speed=18.6x    frame= 9907 fps=446 q=-0.0 size=N/A time=00:06:53.20 bitrate=N/A speed=18.6x    frame=10153 fps=447 q=-0.0 size=N/A time=00:07:03.46 bitrate=N/A speed=18.6x    frame=10401 fps=448 q=-0.0 size=N/A time=00:07:13.80 bitrate=N/A speed=18.7x    frame=10614 fps=447 q=-0.0 size=N/A time=00:07:22.69 bitrate=N/A speed=18.6x    frame=10850 fps=447 q=-0.0 size=N/A time=00:07:32.53 bitrate=N/A speed=18.6x    frame=11102 fps=448 q=-0.0 size=N/A time=00:07:43.04 bitrate=N/A speed=18.7x    frame=11326 fps=448 q=-0.0 size=N/A time=00:07:52.38 bitrate=N/A speed=18.7x    frame=11538 fps=447 q=-0.0 size=N/A time=00:08:01.23 bitrate=N/A speed=18.6x    frame=11771 fps=447 q=-0.0 size=N/A time=00:08:10.94 bitrate=N/A speed=18.6x    frame=12002 fps=447 q=-0.0 size=N/A time=00:08:20.58 bitrate=N/A speed=18.6x    frame=12230 fps=447 q=-0.0 size=N/A time=00:08:30.09 bitrate=N/A speed=18.6x    frame=12479 fps=448 q=-0.0 size=N/A time=00:08:40.47 bitrate=N/A speed=18.7x    frame=12719 fps=448 q=-0.0 size=N/A time=00:08:50.48 bitrate=N/A speed=18.7x    frame=12971 fps=449 q=-0.0 size=N/A time=00:09:00.99 bitrate=N/A speed=18.7x    frame=13227 fps=449 q=-0.0 size=N/A time=00:09:11.67 bitrate=N/A speed=18.7x    frame=13459 fps=449 q=-0.0 size=N/A time=00:09:21.35 bitrate=N/A speed=18.7x    frame=13712 fps=450 q=-0.0 size=N/A time=00:09:31.90 bitrate=N/A speed=18.8x    frame=13964 fps=451 q=-0.0 size=N/A time=00:09:42.41 bitrate=N/A speed=18.8x    frame=14192 fps=451 q=-0.0 size=N/A time=00:09:51.92 bitrate=N/A speed=18.8x    frame=14425 fps=451 q=-0.0 size=N/A time=00:10:01.64 bitrate=N/A speed=18.8x    frame=14665 fps=451 q=-0.0 size=N/A time=00:10:11.65 bitrate=N/A speed=18.8x    frame=14915 fps=452 q=-0.0 size=N/A time=00:10:22.07 bitrate=N/A speed=18.8x    frame=15157 fps=452 q=-0.0 size=N/A time=00:10:32.17 bitrate=N/A speed=18.8x    frame=15394 fps=452 q=-0.0 size=N/A time=00:10:42.05 bitrate=N/A speed=18.8x    frame=15651 fps=453 q=-0.0 size=N/A time=00:10:52.77 bitrate=N/A speed=18.9x    frame=15919 fps=454 q=-0.0 size=N/A time=00:11:03.95 bitrate=N/A speed=18.9x    frame=16176 fps=454 q=-0.0 size=N/A time=00:11:14.67 bitrate=N/A speed=18.9x    frame=16373 fps=453 q=-0.0 size=N/A time=00:11:22.89 bitrate=N/A speed=18.9x    frame=16564 fps=452 q=-0.0 size=N/A time=00:11:30.85 bitrate=N/A speed=18.9x    frame=16795 fps=452 q=-0.0 size=N/A time=00:11:40.49 bitrate=N/A speed=18.8x    frame=17035 fps=452 q=-0.0 size=N/A time=00:11:50.50 bitrate=N/A speed=18.9x    frame=17283 fps=452 q=-0.0 size=N/A time=00:12:00.84 bitrate=N/A speed=18.9x    frame=17474 fps=452 q=-0.0 size=N/A time=00:12:08.81 bitrate=N/A speed=18.8x    frame=17724 fps=452 q=-0.0 size=N/A time=00:12:19.23 bitrate=N/A speed=18.8x    frame=17933 fps=451 q=-0.0 size=N/A time=00:12:27.95 bitrate=N/A speed=18.8x    frame=18146 fps=451 q=-0.0 size=N/A time=00:12:36.83 bitrate=N/A speed=18.8x    frame=18344 fps=450 q=-0.0 size=N/A time=00:12:45.09 bitrate=N/A speed=18.8x    frame=18608 fps=451 q=-0.0 size=N/A time=00:12:56.10 bitrate=N/A speed=18.8x    frame=18846 fps=451 q=-0.0 size=N/A time=00:13:06.03 bitrate=N/A speed=18.8x    frame=19104 fps=451 q=-0.0 size=N/A time=00:13:16.79 bitrate=N/A speed=18.8x    frame=19336 fps=451 q=-0.0 size=N/A time=00:13:26.47 bitrate=N/A speed=18.8x    frame=19594 fps=452 q=-0.0 size=N/A time=00:13:37.23 bitrate=N/A speed=18.9x    frame=19831 fps=452 q=-0.0 size=N/A time=00:13:47.11 bitrate=N/A speed=18.9x    frame=20103 fps=453 q=-0.0 size=N/A time=00:13:58.46 bitrate=N/A speed=18.9x    frame=20367 fps=454 q=-0.0 size=N/A time=00:14:09.47 bitrate=N/A speed=18.9x    frame=20615 fps=454 q=-0.0 size=N/A time=00:14:19.81 bitrate=N/A speed=18.9x    frame=20872 fps=454 q=-0.0 size=N/A time=00:14:30.53 bitrate=N/A speed=  19x    frame=21107 fps=455 q=-0.0 size=N/A time=00:14:40.33 bitrate=N/A speed=  19x    frame=21365 fps=455 q=-0.0 size=N/A time=00:14:51.09 bitrate=N/A speed=  19x    frame=21624 fps=455 q=-0.0 size=N/A time=00:15:01.90 bitrate=N/A speed=  19x    frame=21880 fps=456 q=-0.0 size=N/A time=00:15:12.57 bitrate=N/A speed=  19x    frame=22139 fps=456 q=-0.0 size=N/A time=00:15:23.38 bitrate=N/A speed=  19x    frame=22406 fps=457 q=-0.0 size=N/A time=00:15:34.51 bitrate=N/A speed=19.1x    frame=22646 fps=457 q=-0.0 size=N/A time=00:15:44.52 bitrate=N/A speed=19.1x    frame=22896 fps=458 q=-0.0 size=N/A time=00:15:54.95 bitrate=N/A speed=19.1x    frame=23128 fps=457 q=-0.0 size=N/A time=00:16:04.63 bitrate=N/A speed=19.1x    frame=23379 fps=458 q=-0.0 size=N/A time=00:16:15.09 bitrate=N/A speed=19.1x    frame=23652 fps=458 q=-0.0 size=N/A time=00:16:26.48 bitrate=N/A speed=19.1x    frame=23919 fps=459 q=-0.0 size=N/A time=00:16:37.62 bitrate=N/A speed=19.1x    frame=24175 fps=459 q=-0.0 size=N/A time=00:16:48.29 bitrate=N/A speed=19.2x    frame=24436 fps=460 q=-0.0 size=N/A time=00:16:59.18 bitrate=N/A speed=19.2x    frame=24704 fps=460 q=-0.0 size=N/A time=00:17:10.36 bitrate=N/A speed=19.2x    frame=24964 fps=461 q=-0.0 size=N/A time=00:17:21.20 bitrate=N/A speed=19.2x    frame=25220 fps=461 q=-0.0 size=N/A time=00:17:31.88 bitrate=N/A speed=19.2x    frame=25481 fps=462 q=-0.0 size=N/A time=00:17:42.77 bitrate=N/A speed=19.3x    frame=25604 fps=459 q=-0.0 size=N/A time=00:17:47.90 bitrate=N/A speed=19.2x    frame=25721 fps=457 q=-0.0 size=N/A time=00:17:52.78 bitrate=N/A speed=19.1x    frame=25989 fps=458 q=-0.0 size=N/A time=00:18:03.95 bitrate=N/A speed=19.1x    frame=26253 fps=458 q=-0.0 size=N/A time=00:18:14.96 bitrate=N/A speed=19.1x    frame=26506 fps=459 q=-0.0 size=N/A time=00:18:25.52 bitrate=N/A speed=19.1x    frame=26758 fps=459 q=-0.0 size=N/A time=00:18:36.03 bitrate=N/A speed=19.1x    frame=27008 fps=459 q=-0.0 size=N/A time=00:18:46.45 bitrate=N/A speed=19.2x    frame=27231 fps=459 q=-0.0 size=N/A time=00:18:55.75 bitrate=N/A speed=19.1x    frame=27466 fps=459 q=-0.0 size=N/A time=00:19:05.56 bitrate=N/A speed=19.1x    frame=27723 fps=459 q=-0.0 size=N/A time=00:19:16.28 bitrate=N/A speed=19.2x    frame=27990 fps=460 q=-0.0 size=N/A time=00:19:27.41 bitrate=N/A speed=19.2x    frame=28245 fps=460 q=-0.0 size=N/A time=00:19:38.05 bitrate=N/A speed=19.2x    frame=28509 fps=460 q=-0.0 size=N/A time=00:19:49.06 bitrate=N/A speed=19.2x    frame=28769 fps=461 q=-0.0 size=N/A time=00:19:59.90 bitrate=N/A speed=19.2x    frame=28993 fps=461 q=-0.0 size=N/A time=00:20:09.24 bitrate=N/A speed=19.2x    frame=29259 fps=461 q=-0.0 size=N/A time=00:20:20.34 bitrate=N/A speed=19.2x    frame=29522 fps=462 q=-0.0 size=N/A time=00:20:31.31 bitrate=N/A speed=19.2x    frame=29787 fps=462 q=-0.0 size=N/A time=00:20:42.36 bitrate=N/A speed=19.3x    frame=30027 fps=462 q=-0.0 size=N/A time=00:20:52.37 bitrate=N/A speed=19.3x    frame=30273 fps=462 q=-0.0 size=N/A time=00:21:02.63 bitrate=N/A speed=19.3x    frame=30549 fps=463 q=-0.0 size=N/A time=00:21:14.14 bitrate=N/A speed=19.3x    frame=30827 fps=463 q=-0.0 size=N/A time=00:21:25.74 bitrate=N/A speed=19.3x    frame=31091 fps=464 q=-0.0 size=N/A time=00:21:36.75 bitrate=N/A speed=19.3x    frame=31357 fps=464 q=-0.0 size=N/A time=00:21:47.84 bitrate=N/A speed=19.4x    frame=31618 fps=464 q=-0.0 size=N/A time=00:21:58.73 bitrate=N/A speed=19.4x    frame=31821 fps=464 q=-0.0 size=N/A time=00:22:07.20 bitrate=N/A speed=19.3x    frame=32022 fps=463 q=-0.0 size=N/A time=00:22:15.58 bitrate=N/A speed=19.3x    frame=32202 fps=462 q=-0.0 size=N/A time=00:22:23.09 bitrate=N/A speed=19.3x    frame=32394 fps=462 q=-0.0 size=N/A time=00:22:31.09 bitrate=N/A speed=19.3x    frame=32586 fps=461 q=-0.0 size=N/A time=00:22:39.10 bitrate=N/A speed=19.2x    frame=32763 fps=460 q=-0.0 size=N/A time=00:22:46.49 bitrate=N/A speed=19.2x    frame=32947 fps=459 q=-0.0 size=N/A time=00:22:54.16 bitrate=N/A speed=19.2x    frame=33125 fps=459 q=-0.0 size=N/A time=00:23:01.58 bitrate=N/A speed=19.1x    frame=33312 fps=458 q=-0.0 size=N/A time=00:23:09.38 bitrate=N/A speed=19.1x    frame=33487 fps=457 q=-0.0 size=N/A time=00:23:16.68 bitrate=N/A speed=19.1x    frame=33659 fps=456 q=-0.0 size=N/A time=00:23:23.86 bitrate=N/A speed=  19x    frame=33854 fps=456 q=-0.0 size=N/A time=00:23:31.99 bitrate=N/A speed=  19x    frame=34066 fps=455 q=-0.0 size=N/A time=00:23:40.83 bitrate=N/A speed=  19x    [Parsed_psnr_10 @ 000002db3cf76d40] PSNR y:49.775564 u:50.211223 v:50.489329 average:49.958134 min:41.365857 max:inf
[out#0/null @ 000002db30995f00] video:14696KiB audio:267508KiB subtitle:0KiB other streams:0KiB global headers:0KiB muxing overhead: unknown
frame=34202 fps=455 q=-0.0 Lsize=N/A time=00:23:46.50 bitrate=N/A speed=  19x    
